# xmcd
#
# Track frame offsets:
# 150
# 19027
# 33957
# 45752
# 80982
# 95486
# 114555
# 128557
# 141592
# 155612
# 167327
# 182525
# 197741
# 209230
# 225032
# 238482
# 251188
# 266799
# 279781
# 291965
#
# Disc length: 4072 seconds
#
#
# Revision: 2
# Processed by: cddbd v1.5.1PL0 Copyright (c) Steve Scherf et al.
# Submitted via: FreeRIP 2.941 
#
DISCID=1e0fe614
DTITLE=Slim Dusty - The Middel Years (1970 - 1979)
DYEAR=1996
DGENRE=Country
TTITLE0=Camooweal
TTITLE1=Australian Bushman
TTITLE2=Glory Bound Train
TTITLE3=Man From Snowy River
TTITLE4=Birdsville Track
TTITLE5=Man From Iron Bark
TTITLE6=Clancy From The Overflow
TTITLE7=Henry Lawson
TTITLE8=Lights On The Hill
TTITLE9=Things I See Around Me
TTITLE10=Three Rivers Hotel
TTITLE11=Kelly's Offsider
TTITLE12=Bush Poets Of Australia
TTITLE13=Indian Pacific
TTITLE14=Isa
TTITLE15=Spirit Of Australia
TTITLE16=Losin' My Blues
TTITLE17=Walk A Country Mile
TTITLE18=When The Rain Tumbles Down In July
TTITLE19=Pub With No Beer (later verion)
EXTD=
EXTT0=
EXTT1=
EXTT2=
EXTT3=
EXTT4=
EXTT5=
EXTT6=
EXTT7=
EXTT8=
EXTT9=
EXTT10=
EXTT11=
EXTT12=
EXTT13=
EXTT14=
EXTT15=
EXTT16=
EXTT17=
EXTT18=
EXTT19=
PLAYORDER=
